<svg width="1377" height="493" viewBox="0 0 1377 493" fill="none" xmlns="http://www.w3.org/2000/svg">
<path d="M255.677 299.082C255.677 297.188 257.213 295.651 259.108 295.651C261.002 295.651 262.539 297.188 262.539 299.082C262.539 300.977 261.002 302.514 259.108 302.514C257.234 302.514 255.677 300.977 255.677 299.082Z" fill="url(#paint0_linear)"/>
<path d="M259.697 221.301H258.56V297.082H259.697V221.301Z" fill="url(#paint1_linear)"/>
<path d="M100.031 205.766C100.031 203.872 101.568 202.335 103.462 202.335C105.357 202.335 106.893 203.872 106.893 205.766C106.893 207.661 105.357 209.198 103.462 209.198C101.568 209.198 100.031 207.661 100.031 205.766Z" fill="url(#paint2_linear)"/>
<path d="M104.03 127.986H102.894V203.788H104.03V127.986Z" fill="url(#paint3_linear)"/>
<path d="M142.679 125.123C142.679 123.228 144.215 121.692 146.11 121.692C148.005 121.692 149.541 123.228 149.541 125.123C149.541 127.017 148.005 128.554 146.11 128.554C144.215 128.554 142.679 127.017 142.679 125.123Z" fill="url(#paint4_linear)"/>
<path d="M146.699 47.342H145.563V123.123H146.699V47.342Z" fill="url(#paint5_linear)"/>
<path d="M176.949 142.531C176.949 140.637 178.485 139.1 180.38 139.1C182.274 139.1 183.811 140.637 183.811 142.531C183.811 144.426 182.274 145.963 180.38 145.963C178.506 145.984 176.949 144.447 176.949 142.531Z" fill="url(#paint6_linear)"/>
<path d="M180.969 64.7717H179.832V140.574H180.969V64.7717Z" fill="url(#paint7_linear)"/>
<path d="M232.858 338.215C232.858 336.32 234.395 334.784 236.289 334.784C238.184 334.784 239.72 336.32 239.72 338.215C239.72 340.109 238.184 341.646 236.289 341.646C234.395 341.646 232.858 340.109 232.858 338.215Z" fill="url(#paint8_linear)"/>
<path d="M236.879 260.434H235.742V336.215H236.879V260.434Z" fill="url(#paint9_linear)"/>
<path d="M285.968 117.503C285.968 115.608 287.505 114.071 289.399 114.071C291.294 114.071 292.83 115.608 292.83 117.503C292.83 119.397 291.294 120.934 289.399 120.934C287.505 120.934 285.968 119.397 285.968 117.503Z" fill="url(#paint10_linear)"/>
<path d="M289.967 39.7429H288.831V115.524H289.967V39.7429Z" fill="url(#paint11_linear)"/>
<path d="M191.263 114.135C191.263 112.24 192.799 110.703 194.694 110.703C196.588 110.703 198.125 112.24 198.125 114.135C198.125 116.029 196.588 117.566 194.694 117.566C192.799 117.566 191.263 116.029 191.263 114.135Z" fill="url(#paint12_linear)"/>
<path d="M195.283 74.2654H194.147V112.156H195.283V74.2654Z" fill="url(#paint13_linear)"/>
<path d="M320.68 304.64C320.68 302.745 322.216 301.208 324.111 301.208C326.006 301.208 327.542 302.745 327.542 304.64C327.542 306.534 326.006 308.071 324.111 308.071C322.238 308.071 320.68 306.534 320.68 304.64Z" fill="url(#paint14_linear)"/>
<path d="M324.7 264.749H323.564V302.64H324.7V264.749Z" fill="url(#paint15_linear)"/>
<path d="M76.4756 39.8692C76.4756 37.9747 78.0123 36.438 79.9068 36.438C81.8014 36.438 83.338 37.9747 83.338 39.8692C83.338 41.7638 81.8014 43.3004 79.9068 43.3004C78.0334 43.3004 76.4756 41.7638 76.4756 39.8692Z" fill="url(#paint16_linear)"/>
<path d="M80.4963 0H79.3596V37.8905H80.4963V0Z" fill="url(#paint17_linear)"/>
<path d="M123.27 103.862C123.27 101.968 124.807 100.431 126.702 100.431C128.596 100.431 130.133 101.968 130.133 103.862C130.133 105.757 128.596 107.293 126.702 107.293C124.807 107.293 123.27 105.757 123.27 103.862Z" fill="url(#paint18_linear)"/>
<path d="M127.291 63.9718H126.154V101.862H127.291V63.9718Z" fill="url(#paint19_linear)"/>
<path d="M234.205 51.3627C234.205 49.4682 235.742 47.9315 237.637 47.9315C239.531 47.9315 241.068 49.4682 241.068 51.3627C241.068 53.2572 239.531 54.7939 237.637 54.7939C235.763 54.8149 234.205 53.2572 234.205 51.3627Z" fill="url(#paint20_linear)"/>
<path d="M238.226 11.4935H237.089V49.384H238.226V11.4935Z" fill="url(#paint21_linear)"/>
<path d="M186.463 328.658C186.463 326.763 188 325.227 189.895 325.227C191.789 325.227 193.326 326.763 193.326 328.658C193.326 330.552 191.789 332.089 189.895 332.089C188 332.089 186.463 330.552 186.463 328.658Z" fill="url(#paint22_linear)"/>
<path d="M190.463 250.877H189.326V326.679H190.463V250.877Z" fill="url(#paint23_linear)"/>
<path d="M70.1184 191.494C70.1184 189.6 71.655 188.063 73.5496 188.063C75.4441 188.063 76.9808 189.6 76.9808 191.494C76.9808 193.389 75.4441 194.926 73.5496 194.926C71.655 194.926 70.1184 193.389 70.1184 191.494Z" fill="url(#paint24_linear)"/>
<path d="M74.1389 113.735H73.0022V189.516H74.1389V113.735Z" fill="url(#paint25_linear)"/>
<path d="M285.21 288.431C285.21 286.536 286.747 285 288.641 285C290.536 285 292.072 286.536 292.072 288.431C292.072 290.325 290.536 291.862 288.641 291.862C286.747 291.883 285.21 290.346 285.21 288.431Z" fill="url(#paint26_linear)"/>
<path d="M289.21 210.671H288.073V286.473H289.21V210.671Z" fill="url(#paint27_linear)"/>
<path d="M0 164.655C0 162.761 1.53667 161.224 3.43119 161.224C5.32572 161.224 6.86239 162.761 6.86239 164.655C6.86239 166.55 5.32572 168.086 3.43119 168.086C1.53667 168.086 0 166.55 0 164.655Z" fill="url(#paint28_linear)"/>
<path d="M3.99951 86.8745H2.86279V162.677H3.99951V86.8745Z" fill="url(#paint29_linear)"/>
<path d="M119.839 479.378C119.839 477.483 121.376 475.947 123.27 475.947C125.165 475.947 126.702 477.483 126.702 479.378C126.702 481.272 125.165 482.809 123.27 482.809C121.376 482.83 119.839 481.272 119.839 479.378Z" fill="url(#paint30_linear)"/>
<path d="M123.839 215.892H122.702V477.399H123.839V215.892Z" fill="url(#paint31_linear)"/>
<path d="M42.0583 465.485C42.0583 463.59 43.5951 462.053 45.4896 462.053C47.3841 462.053 48.9207 463.59 48.9207 465.485C48.9207 467.379 47.3841 468.916 45.4896 468.916C43.5951 468.937 42.0583 467.4 42.0583 465.485Z" fill="url(#paint32_linear)"/>
<path d="M46.0791 62.1194H44.9424V463.527H46.0791V62.1194Z" fill="url(#paint33_linear)"/>
<path d="M265.339 329.647C265.339 327.753 266.875 326.216 268.77 326.216C270.664 326.216 272.201 327.753 272.201 329.647C272.201 331.542 270.664 333.078 268.77 333.078C266.875 333.078 265.339 331.542 265.339 329.647Z" fill="url(#paint34_linear)"/>
<path d="M269.338 66.161H268.202V327.669H269.338V66.161Z" fill="url(#paint35_linear)"/>
<path d="M172.907 406.291C172.907 404.397 174.444 402.86 176.338 402.86C178.233 402.86 179.769 404.397 179.769 406.291C179.769 408.186 178.233 409.723 176.338 409.723C174.444 409.744 172.907 408.186 172.907 406.291Z" fill="url(#paint36_linear)"/>
<path d="M176.928 142.826H175.791V404.334H176.928V142.826Z" fill="url(#paint37_linear)"/>
<path d="M33.0068 385.22C33.0068 383.325 34.5434 381.789 36.438 381.789C38.3325 381.789 39.8692 383.325 39.8692 385.22C39.8692 387.114 38.3325 388.651 36.438 388.651C34.5434 388.651 33.0068 387.114 33.0068 385.22Z" fill="url(#paint38_linear)"/>
<path d="M37.0063 121.734H35.8696V383.241H37.0063V121.734Z" fill="url(#paint39_linear)"/>
<path d="M245.551 203.451C245.551 201.556 247.088 200.02 248.983 200.02C250.877 200.02 252.414 201.556 252.414 203.451C252.414 205.345 250.877 206.882 248.983 206.882C247.088 206.903 245.551 205.367 245.551 203.451Z" fill="url(#paint40_linear)"/>
<path d="M249.572 56.7937H248.435V201.472H249.572V56.7937Z" fill="url(#paint41_linear)"/>
<path d="M92.8528 280.495C92.8528 278.6 94.3895 277.064 96.284 277.064C98.1785 277.064 99.7152 278.6 99.7152 280.495C99.7152 282.389 98.1785 283.926 96.284 283.926C94.3895 283.926 92.8528 282.389 92.8528 280.495Z" fill="url(#paint42_linear)"/>
<path d="M96.8733 133.838H95.7366V278.516H96.8733V133.838Z" fill="url(#paint43_linear)"/>
<path d="M1219.51 335.352C1219.51 333.458 1221.05 331.921 1222.94 331.921C1224.84 331.921 1226.38 333.458 1226.38 335.352C1226.38 337.247 1224.84 338.783 1222.94 338.783C1221.05 338.804 1219.51 337.247 1219.51 335.352Z" fill="url(#paint44_linear)"/>
<path d="M1223.51 280.537H1222.38V333.395H1223.51V280.537Z" fill="url(#paint45_linear)"/>
<path d="M1131 258.603C1131 256.708 1132.53 255.172 1134.43 255.172C1136.32 255.172 1137.86 256.708 1137.86 258.603C1137.86 260.497 1136.32 262.034 1134.43 262.034C1132.53 262.034 1131 260.497 1131 258.603Z" fill="url(#paint46_linear)"/>
<path d="M1135 119.818H1133.86V256.624H1135V119.818Z" fill="url(#paint47_linear)"/>
<path d="M1091.86 140.321C1091.86 138.427 1093.4 136.89 1095.3 136.89C1097.19 136.89 1098.73 138.427 1098.73 140.321C1098.73 142.216 1097.19 143.753 1095.3 143.753C1093.42 143.774 1091.86 142.237 1091.86 140.321Z" fill="url(#paint48_linear)"/>
<path d="M1095.89 62.5616H1094.75V138.364H1095.89V62.5616Z" fill="url(#paint49_linear)"/>
<path d="M1198.11 200.062C1198.11 198.168 1199.64 196.631 1201.54 196.631C1203.43 196.631 1204.97 198.168 1204.97 200.062C1204.97 201.957 1203.43 203.493 1201.54 203.493C1199.64 203.514 1198.11 201.957 1198.11 200.062Z" fill="url(#paint50_linear)"/>
<path d="M1202.1 122.302H1200.97V198.104H1202.1V122.302Z" fill="url(#paint51_linear)"/>
<path d="M1336.78 174.444C1336.78 172.549 1338.32 171.013 1340.22 171.013C1342.11 171.013 1343.65 172.549 1343.65 174.444C1343.65 176.338 1342.11 177.875 1340.22 177.875C1338.32 177.896 1336.78 176.359 1336.78 174.444Z" fill="url(#paint52_linear)"/>
<path d="M1340.81 96.6841H1339.67V172.465H1340.81V96.6841Z" fill="url(#paint53_linear)"/>
<path d="M1306.72 206.04C1306.72 204.146 1308.26 202.609 1310.16 202.609C1312.05 202.609 1313.59 204.146 1313.59 206.04C1313.59 207.935 1312.05 209.472 1310.16 209.472C1308.26 209.472 1306.72 207.935 1306.72 206.04Z" fill="url(#paint54_linear)"/>
<path d="M1310.75 128.281H1309.61V204.083H1310.75V128.281Z" fill="url(#paint55_linear)"/>
<path d="M1188.02 263.423C1188.02 261.529 1189.56 259.992 1191.45 259.992C1193.35 259.992 1194.88 261.529 1194.88 263.423C1194.88 265.318 1193.35 266.855 1191.45 266.855C1189.56 266.876 1188.02 265.318 1188.02 263.423Z" fill="url(#paint56_linear)"/>
<path d="M1192.04 119.292H1190.91V261.445H1192.04V119.292Z" fill="url(#paint57_linear)"/>
<path d="M1208 237.363C1208 235.469 1209.54 233.932 1211.43 233.932C1213.32 233.932 1214.86 235.469 1214.86 237.363C1214.86 239.258 1213.32 240.794 1211.43 240.794C1209.54 240.794 1208 239.258 1208 237.363Z" fill="url(#paint58_linear)"/>
<path d="M1212.02 121.902H1210.88V235.384H1212.02V121.902Z" fill="url(#paint59_linear)"/>
<path d="M1159.04 388.104C1159.04 386.21 1160.57 384.673 1162.47 384.673C1164.36 384.673 1165.9 386.21 1165.9 388.104C1165.9 389.999 1164.36 391.535 1162.47 391.535C1160.59 391.535 1159.04 389.999 1159.04 388.104Z" fill="url(#paint60_linear)"/>
<path d="M1163.06 124.618H1161.92V386.125H1163.06V124.618Z" fill="url(#paint61_linear)"/>
<path d="M1259.13 274.559C1259.13 272.664 1260.67 271.128 1262.56 271.128C1264.46 271.128 1265.99 272.664 1265.99 274.559C1265.99 276.454 1264.46 277.99 1262.56 277.99C1260.67 277.99 1259.13 276.454 1259.13 274.559Z" fill="url(#paint62_linear)"/>
<path d="M1263.15 11.0728H1262.01V272.58H1263.15V11.0728Z" fill="url(#paint63_linear)"/>
<path d="M1311.23 289.189C1311.23 287.294 1312.77 285.758 1314.66 285.758C1316.56 285.758 1318.09 287.294 1318.09 289.189C1318.09 291.083 1316.56 292.62 1314.66 292.62C1312.77 292.62 1311.23 291.083 1311.23 289.189Z" fill="url(#paint64_linear)"/>
<path d="M1315.23 25.7028H1314.09V287.21H1315.23V25.7028Z" fill="url(#paint65_linear)"/>
<path d="M1100.98 445.677C1100.98 443.782 1102.52 442.245 1104.41 442.245C1106.31 442.245 1107.84 443.782 1107.84 445.677C1107.84 447.571 1106.31 449.108 1104.41 449.108C1102.54 449.108 1100.98 447.571 1100.98 445.677Z" fill="url(#paint66_linear)"/>
<path d="M1105 182.19H1103.86V443.698H1105V182.19Z" fill="url(#paint67_linear)"/>
<path d="M1376.44 230.564H1375.31V492.071H1376.44V230.564Z" fill="url(#paint68_linear)"/>
<path d="M1320.58 342.088C1320.58 340.194 1322.11 338.657 1324.01 338.657C1325.9 338.657 1327.44 340.194 1327.44 342.088C1327.44 343.983 1325.9 345.52 1324.01 345.52C1322.11 345.52 1320.58 343.983 1320.58 342.088Z" fill="url(#paint69_linear)"/>
<path d="M1324.6 78.6021H1323.46V340.11H1324.6V78.6021Z" fill="url(#paint70_linear)"/>
<path d="M1056.08 375.79C1056.08 373.895 1057.62 372.359 1059.51 372.359C1061.4 372.359 1062.94 373.895 1062.94 375.79C1062.94 377.684 1061.4 379.221 1059.51 379.221C1057.62 379.242 1056.08 377.705 1056.08 375.79Z" fill="url(#paint71_linear)"/>
<path d="M1060.08 229.132H1058.94V373.811H1060.08V229.132Z" fill="url(#paint72_linear)"/>
<path d="M1115.23 218.123C1115.23 216.229 1116.77 214.692 1118.66 214.692C1120.56 214.692 1122.09 216.229 1122.09 218.123C1122.09 220.018 1120.56 221.554 1118.66 221.554C1116.77 221.576 1115.23 220.039 1115.23 218.123Z" fill="url(#paint73_linear)"/>
<path d="M1119.25 111.377H1118.11V216.166H1119.25V111.377Z" fill="url(#paint74_linear)"/>
<path d="M1302.3 403.05C1302.3 401.155 1303.84 399.619 1305.74 399.619C1307.63 399.619 1309.17 401.155 1309.17 403.05C1309.17 404.944 1307.63 406.481 1305.74 406.481C1303.84 406.481 1302.3 404.944 1302.3 403.05Z" fill="url(#paint75_linear)"/>
<path d="M1306.32 256.372H1305.19V401.05H1306.32V256.372Z" fill="url(#paint76_linear)"/>
<defs>
<linearGradient id="paint0_linear" x1="259.087" y1="300.945" x2="259.087" y2="295.544" gradientUnits="userSpaceOnUse">
<stop stop-color="#A4FFFF" stop-opacity="0.18"/>
<stop offset="1" stop-color="#A4FFFF" stop-opacity="0"/>
</linearGradient>
<linearGradient id="paint1_linear" x1="259.125" y1="279.762" x2="259.125" y2="220.125" gradientUnits="userSpaceOnUse">
<stop stop-color="#A4FFFF" stop-opacity="0.18"/>
<stop offset="1" stop-color="#A4FFFF" stop-opacity="0"/>
</linearGradient>
<linearGradient id="paint2_linear" x1="103.441" y1="207.629" x2="103.441" y2="202.228" gradientUnits="userSpaceOnUse">
<stop stop-color="#A4FFFF" stop-opacity="0.18"/>
<stop offset="1" stop-color="#A4FFFF" stop-opacity="0"/>
</linearGradient>
<linearGradient id="paint3_linear" x1="103.459" y1="186.463" x2="103.459" y2="126.81" gradientUnits="userSpaceOnUse">
<stop stop-color="#A4FFFF" stop-opacity="0.18"/>
<stop offset="1" stop-color="#A4FFFF" stop-opacity="0"/>
</linearGradient>
<linearGradient id="paint4_linear" x1="146.089" y1="126.986" x2="146.089" y2="121.586" gradientUnits="userSpaceOnUse">
<stop stop-color="#A4FFFF" stop-opacity="0.18"/>
<stop offset="1" stop-color="#A4FFFF" stop-opacity="0"/>
</linearGradient>
<linearGradient id="paint5_linear" x1="146.127" y1="105.803" x2="146.127" y2="46.166" gradientUnits="userSpaceOnUse">
<stop stop-color="#A4FFFF" stop-opacity="0.18"/>
<stop offset="1" stop-color="#A4FFFF" stop-opacity="0"/>
</linearGradient>
<linearGradient id="paint6_linear" x1="180.359" y1="144.395" x2="180.359" y2="138.993" gradientUnits="userSpaceOnUse">
<stop stop-color="#A4FFFF" stop-opacity="0.18"/>
<stop offset="1" stop-color="#A4FFFF" stop-opacity="0"/>
</linearGradient>
<linearGradient id="paint7_linear" x1="180.397" y1="123.249" x2="180.397" y2="63.5954" gradientUnits="userSpaceOnUse">
<stop stop-color="#A4FFFF" stop-opacity="0.18"/>
<stop offset="1" stop-color="#A4FFFF" stop-opacity="0"/>
</linearGradient>
<linearGradient id="paint8_linear" x1="236.268" y1="340.078" x2="236.268" y2="334.678" gradientUnits="userSpaceOnUse">
<stop stop-color="#A4FFFF" stop-opacity="0.18"/>
<stop offset="1" stop-color="#A4FFFF" stop-opacity="0"/>
</linearGradient>
<linearGradient id="paint9_linear" x1="236.307" y1="318.895" x2="236.307" y2="259.258" gradientUnits="userSpaceOnUse">
<stop stop-color="#A4FFFF" stop-opacity="0.18"/>
<stop offset="1" stop-color="#A4FFFF" stop-opacity="0"/>
</linearGradient>
<linearGradient id="paint10_linear" x1="289.378" y1="119.365" x2="289.378" y2="113.965" gradientUnits="userSpaceOnUse">
<stop stop-color="#A4FFFF" stop-opacity="0.18"/>
<stop offset="1" stop-color="#A4FFFF" stop-opacity="0"/>
</linearGradient>
<linearGradient id="paint11_linear" x1="289.396" y1="98.204" x2="289.396" y2="38.5669" gradientUnits="userSpaceOnUse">
<stop stop-color="#A4FFFF" stop-opacity="0.18"/>
<stop offset="1" stop-color="#A4FFFF" stop-opacity="0"/>
</linearGradient>
<linearGradient id="paint12_linear" x1="194.673" y1="115.998" x2="194.673" y2="110.597" gradientUnits="userSpaceOnUse">
<stop stop-color="#A4FFFF" stop-opacity="0.18"/>
<stop offset="1" stop-color="#A4FFFF" stop-opacity="0"/>
</linearGradient>
<linearGradient id="paint13_linear" x1="194.711" y1="103.496" x2="194.711" y2="73.6774" gradientUnits="userSpaceOnUse">
<stop stop-color="#A4FFFF" stop-opacity="0.18"/>
<stop offset="1" stop-color="#A4FFFF" stop-opacity="0"/>
</linearGradient>
<linearGradient id="paint14_linear" x1="324.09" y1="306.502" x2="324.09" y2="301.102" gradientUnits="userSpaceOnUse">
<stop stop-color="#A4FFFF" stop-opacity="0.18"/>
<stop offset="1" stop-color="#A4FFFF" stop-opacity="0"/>
</linearGradient>
<linearGradient id="paint15_linear" x1="324.128" y1="293.98" x2="324.128" y2="264.161" gradientUnits="userSpaceOnUse">
<stop stop-color="#A4FFFF" stop-opacity="0.18"/>
<stop offset="1" stop-color="#A4FFFF" stop-opacity="0"/>
</linearGradient>
<linearGradient id="paint16_linear" x1="79.8857" y1="41.732" x2="79.8857" y2="36.3315" gradientUnits="userSpaceOnUse">
<stop stop-color="#A4FFFF" stop-opacity="0.18"/>
<stop offset="1" stop-color="#A4FFFF" stop-opacity="0"/>
</linearGradient>
<linearGradient id="paint17_linear" x1="79.9245" y1="29.2305" x2="79.9245" y2="-0.588" gradientUnits="userSpaceOnUse">
<stop stop-color="#A4FFFF" stop-opacity="0.18"/>
<stop offset="1" stop-color="#A4FFFF" stop-opacity="0"/>
</linearGradient>
<linearGradient id="paint18_linear" x1="126.68" y1="105.725" x2="126.68" y2="100.324" gradientUnits="userSpaceOnUse">
<stop stop-color="#A4FFFF" stop-opacity="0.18"/>
<stop offset="1" stop-color="#A4FFFF" stop-opacity="0"/>
</linearGradient>
<linearGradient id="paint19_linear" x1="126.719" y1="93.2023" x2="126.719" y2="63.3838" gradientUnits="userSpaceOnUse">
<stop stop-color="#A4FFFF" stop-opacity="0.18"/>
<stop offset="1" stop-color="#A4FFFF" stop-opacity="0"/>
</linearGradient>
<linearGradient id="paint20_linear" x1="237.615" y1="53.2257" x2="237.615" y2="47.825" gradientUnits="userSpaceOnUse">
<stop stop-color="#A4FFFF" stop-opacity="0.18"/>
<stop offset="1" stop-color="#A4FFFF" stop-opacity="0"/>
</linearGradient>
<linearGradient id="paint21_linear" x1="237.654" y1="40.724" x2="237.654" y2="10.9055" gradientUnits="userSpaceOnUse">
<stop stop-color="#A4FFFF" stop-opacity="0.18"/>
<stop offset="1" stop-color="#A4FFFF" stop-opacity="0"/>
</linearGradient>
<linearGradient id="paint22_linear" x1="189.873" y1="330.521" x2="189.873" y2="325.121" gradientUnits="userSpaceOnUse">
<stop stop-color="#A4FFFF" stop-opacity="0.18"/>
<stop offset="1" stop-color="#A4FFFF" stop-opacity="0"/>
</linearGradient>
<linearGradient id="paint23_linear" x1="189.891" y1="309.354" x2="189.891" y2="249.701" gradientUnits="userSpaceOnUse">
<stop stop-color="#A4FFFF" stop-opacity="0.18"/>
<stop offset="1" stop-color="#A4FFFF" stop-opacity="0"/>
</linearGradient>
<linearGradient id="paint24_linear" x1="73.5285" y1="193.357" x2="73.5285" y2="187.956" gradientUnits="userSpaceOnUse">
<stop stop-color="#A4FFFF" stop-opacity="0.18"/>
<stop offset="1" stop-color="#A4FFFF" stop-opacity="0"/>
</linearGradient>
<linearGradient id="paint25_linear" x1="73.567" y1="172.196" x2="73.567" y2="112.559" gradientUnits="userSpaceOnUse">
<stop stop-color="#A4FFFF" stop-opacity="0.18"/>
<stop offset="1" stop-color="#A4FFFF" stop-opacity="0"/>
</linearGradient>
<linearGradient id="paint26_linear" x1="288.62" y1="290.294" x2="288.62" y2="284.894" gradientUnits="userSpaceOnUse">
<stop stop-color="#A4FFFF" stop-opacity="0.18"/>
<stop offset="1" stop-color="#A4FFFF" stop-opacity="0"/>
</linearGradient>
<linearGradient id="paint27_linear" x1="288.638" y1="269.148" x2="288.638" y2="209.495" gradientUnits="userSpaceOnUse">
<stop stop-color="#A4FFFF" stop-opacity="0.18"/>
<stop offset="1" stop-color="#A4FFFF" stop-opacity="0"/>
</linearGradient>
<linearGradient id="paint28_linear" x1="3.41007" y1="166.518" x2="3.41007" y2="161.118" gradientUnits="userSpaceOnUse">
<stop stop-color="#A4FFFF" stop-opacity="0.18"/>
<stop offset="1" stop-color="#A4FFFF" stop-opacity="0"/>
</linearGradient>
<linearGradient id="paint29_linear" x1="3.42765" y1="145.352" x2="3.42765" y2="85.6982" gradientUnits="userSpaceOnUse">
<stop stop-color="#A4FFFF" stop-opacity="0.18"/>
<stop offset="1" stop-color="#A4FFFF" stop-opacity="0"/>
</linearGradient>
<linearGradient id="paint30_linear" x1="123.249" y1="481.241" x2="123.249" y2="475.841" gradientUnits="userSpaceOnUse">
<stop stop-color="#A4FFFF" stop-opacity="0.18"/>
<stop offset="1" stop-color="#A4FFFF" stop-opacity="0"/>
</linearGradient>
<linearGradient id="paint31_linear" x1="123.267" y1="417.631" x2="123.267" y2="211.834" gradientUnits="userSpaceOnUse">
<stop stop-color="#A4FFFF" stop-opacity="0.18"/>
<stop offset="1" stop-color="#A4FFFF" stop-opacity="0"/>
</linearGradient>
<linearGradient id="paint32_linear" x1="45.4684" y1="467.348" x2="45.4684" y2="461.946" gradientUnits="userSpaceOnUse">
<stop stop-color="#A4FFFF" stop-opacity="0.18"/>
<stop offset="1" stop-color="#A4FFFF" stop-opacity="0"/>
</linearGradient>
<linearGradient id="paint33_linear" x1="45.5072" y1="371.784" x2="45.5072" y2="55.8902" gradientUnits="userSpaceOnUse">
<stop stop-color="#A4FFFF" stop-opacity="0.18"/>
<stop offset="1" stop-color="#A4FFFF" stop-opacity="0"/>
</linearGradient>
<linearGradient id="paint34_linear" x1="268.749" y1="331.51" x2="268.749" y2="326.11" gradientUnits="userSpaceOnUse">
<stop stop-color="#A4FFFF" stop-opacity="0.18"/>
<stop offset="1" stop-color="#A4FFFF" stop-opacity="0"/>
</linearGradient>
<linearGradient id="paint35_linear" x1="268.767" y1="267.9" x2="268.767" y2="62.1028" gradientUnits="userSpaceOnUse">
<stop stop-color="#A4FFFF" stop-opacity="0.18"/>
<stop offset="1" stop-color="#A4FFFF" stop-opacity="0"/>
</linearGradient>
<linearGradient id="paint36_linear" x1="176.317" y1="408.155" x2="176.317" y2="402.753" gradientUnits="userSpaceOnUse">
<stop stop-color="#A4FFFF" stop-opacity="0.18"/>
<stop offset="1" stop-color="#A4FFFF" stop-opacity="0"/>
</linearGradient>
<linearGradient id="paint37_linear" x1="176.356" y1="344.566" x2="176.356" y2="138.768" gradientUnits="userSpaceOnUse">
<stop stop-color="#A4FFFF" stop-opacity="0.18"/>
<stop offset="1" stop-color="#A4FFFF" stop-opacity="0"/>
</linearGradient>
<linearGradient id="paint38_linear" x1="36.4169" y1="387.083" x2="36.4169" y2="381.683" gradientUnits="userSpaceOnUse">
<stop stop-color="#A4FFFF" stop-opacity="0.18"/>
<stop offset="1" stop-color="#A4FFFF" stop-opacity="0"/>
</linearGradient>
<linearGradient id="paint39_linear" x1="36.4345" y1="323.473" x2="36.4345" y2="117.676" gradientUnits="userSpaceOnUse">
<stop stop-color="#A4FFFF" stop-opacity="0.18"/>
<stop offset="1" stop-color="#A4FFFF" stop-opacity="0"/>
</linearGradient>
<linearGradient id="paint40_linear" x1="248.961" y1="205.314" x2="248.961" y2="199.914" gradientUnits="userSpaceOnUse">
<stop stop-color="#A4FFFF" stop-opacity="0.18"/>
<stop offset="1" stop-color="#A4FFFF" stop-opacity="0"/>
</linearGradient>
<linearGradient id="paint41_linear" x1="249" y1="168.405" x2="249" y2="54.5485" gradientUnits="userSpaceOnUse">
<stop stop-color="#A4FFFF" stop-opacity="0.18"/>
<stop offset="1" stop-color="#A4FFFF" stop-opacity="0"/>
</linearGradient>
<linearGradient id="paint42_linear" x1="96.2629" y1="282.358" x2="96.2629" y2="276.957" gradientUnits="userSpaceOnUse">
<stop stop-color="#A4FFFF" stop-opacity="0.18"/>
<stop offset="1" stop-color="#A4FFFF" stop-opacity="0"/>
</linearGradient>
<linearGradient id="paint43_linear" x1="96.3014" y1="245.449" x2="96.3014" y2="131.593" gradientUnits="userSpaceOnUse">
<stop stop-color="#A4FFFF" stop-opacity="0.18"/>
<stop offset="1" stop-color="#A4FFFF" stop-opacity="0"/>
</linearGradient>
<linearGradient id="paint44_linear" x1="1222.92" y1="337.215" x2="1222.92" y2="331.815" gradientUnits="userSpaceOnUse">
<stop stop-color="#A4FFFF" stop-opacity="0.18"/>
<stop offset="1" stop-color="#A4FFFF" stop-opacity="0"/>
</linearGradient>
<linearGradient id="paint45_linear" x1="1222.94" y1="321.314" x2="1222.94" y2="279.717" gradientUnits="userSpaceOnUse">
<stop stop-color="#A4FFFF" stop-opacity="0.18"/>
<stop offset="1" stop-color="#A4FFFF" stop-opacity="0"/>
</linearGradient>
<linearGradient id="paint46_linear" x1="1134.41" y1="260.466" x2="1134.41" y2="255.066" gradientUnits="userSpaceOnUse">
<stop stop-color="#A4FFFF" stop-opacity="0.18"/>
<stop offset="1" stop-color="#A4FFFF" stop-opacity="0"/>
</linearGradient>
<linearGradient id="paint47_linear" x1="1134.43" y1="225.357" x2="1134.43" y2="117.695" gradientUnits="userSpaceOnUse">
<stop stop-color="#A4FFFF" stop-opacity="0.18"/>
<stop offset="1" stop-color="#A4FFFF" stop-opacity="0"/>
</linearGradient>
<linearGradient id="paint48_linear" x1="1095.27" y1="142.185" x2="1095.27" y2="136.784" gradientUnits="userSpaceOnUse">
<stop stop-color="#A4FFFF" stop-opacity="0.18"/>
<stop offset="1" stop-color="#A4FFFF" stop-opacity="0"/>
</linearGradient>
<linearGradient id="paint49_linear" x1="1095.32" y1="121.039" x2="1095.32" y2="61.3853" gradientUnits="userSpaceOnUse">
<stop stop-color="#A4FFFF" stop-opacity="0.18"/>
<stop offset="1" stop-color="#A4FFFF" stop-opacity="0"/>
</linearGradient>
<linearGradient id="paint50_linear" x1="1201.52" y1="201.925" x2="1201.52" y2="196.524" gradientUnits="userSpaceOnUse">
<stop stop-color="#A4FFFF" stop-opacity="0.18"/>
<stop offset="1" stop-color="#A4FFFF" stop-opacity="0"/>
</linearGradient>
<linearGradient id="paint51_linear" x1="1201.53" y1="180.779" x2="1201.53" y2="121.126" gradientUnits="userSpaceOnUse">
<stop stop-color="#A4FFFF" stop-opacity="0.18"/>
<stop offset="1" stop-color="#A4FFFF" stop-opacity="0"/>
</linearGradient>
<linearGradient id="paint52_linear" x1="1340.19" y1="176.307" x2="1340.19" y2="170.906" gradientUnits="userSpaceOnUse">
<stop stop-color="#A4FFFF" stop-opacity="0.18"/>
<stop offset="1" stop-color="#A4FFFF" stop-opacity="0"/>
</linearGradient>
<linearGradient id="paint53_linear" x1="1340.24" y1="155.145" x2="1340.24" y2="95.5081" gradientUnits="userSpaceOnUse">
<stop stop-color="#A4FFFF" stop-opacity="0.18"/>
<stop offset="1" stop-color="#A4FFFF" stop-opacity="0"/>
</linearGradient>
<linearGradient id="paint54_linear" x1="1310.13" y1="207.903" x2="1310.13" y2="202.503" gradientUnits="userSpaceOnUse">
<stop stop-color="#A4FFFF" stop-opacity="0.18"/>
<stop offset="1" stop-color="#A4FFFF" stop-opacity="0"/>
</linearGradient>
<linearGradient id="paint55_linear" x1="1310.18" y1="186.758" x2="1310.18" y2="127.105" gradientUnits="userSpaceOnUse">
<stop stop-color="#A4FFFF" stop-opacity="0.18"/>
<stop offset="1" stop-color="#A4FFFF" stop-opacity="0"/>
</linearGradient>
<linearGradient id="paint56_linear" x1="1191.43" y1="265.287" x2="1191.43" y2="259.885" gradientUnits="userSpaceOnUse">
<stop stop-color="#A4FFFF" stop-opacity="0.18"/>
<stop offset="1" stop-color="#A4FFFF" stop-opacity="0"/>
</linearGradient>
<linearGradient id="paint57_linear" x1="1191.47" y1="228.955" x2="1191.47" y2="117.086" gradientUnits="userSpaceOnUse">
<stop stop-color="#A4FFFF" stop-opacity="0.18"/>
<stop offset="1" stop-color="#A4FFFF" stop-opacity="0"/>
</linearGradient>
<linearGradient id="paint58_linear" x1="1211.41" y1="239.226" x2="1211.41" y2="233.826" gradientUnits="userSpaceOnUse">
<stop stop-color="#A4FFFF" stop-opacity="0.18"/>
<stop offset="1" stop-color="#A4FFFF" stop-opacity="0"/>
</linearGradient>
<linearGradient id="paint59_linear" x1="1211.45" y1="209.447" x2="1211.45" y2="120.141" gradientUnits="userSpaceOnUse">
<stop stop-color="#A4FFFF" stop-opacity="0.18"/>
<stop offset="1" stop-color="#A4FFFF" stop-opacity="0"/>
</linearGradient>
<linearGradient id="paint60_linear" x1="1162.45" y1="389.967" x2="1162.45" y2="384.566" gradientUnits="userSpaceOnUse">
<stop stop-color="#A4FFFF" stop-opacity="0.18"/>
<stop offset="1" stop-color="#A4FFFF" stop-opacity="0"/>
</linearGradient>
<linearGradient id="paint61_linear" x1="1162.49" y1="326.357" x2="1162.49" y2="120.56" gradientUnits="userSpaceOnUse">
<stop stop-color="#A4FFFF" stop-opacity="0.18"/>
<stop offset="1" stop-color="#A4FFFF" stop-opacity="0"/>
</linearGradient>
<linearGradient id="paint62_linear" x1="1262.54" y1="276.422" x2="1262.54" y2="271.021" gradientUnits="userSpaceOnUse">
<stop stop-color="#A4FFFF" stop-opacity="0.18"/>
<stop offset="1" stop-color="#A4FFFF" stop-opacity="0"/>
</linearGradient>
<linearGradient id="paint63_linear" x1="1262.58" y1="212.812" x2="1262.58" y2="7.01458" gradientUnits="userSpaceOnUse">
<stop stop-color="#A4FFFF" stop-opacity="0.18"/>
<stop offset="1" stop-color="#A4FFFF" stop-opacity="0"/>
</linearGradient>
<linearGradient id="paint64_linear" x1="1314.64" y1="291.052" x2="1314.64" y2="285.652" gradientUnits="userSpaceOnUse">
<stop stop-color="#A4FFFF" stop-opacity="0.18"/>
<stop offset="1" stop-color="#A4FFFF" stop-opacity="0"/>
</linearGradient>
<linearGradient id="paint65_linear" x1="1314.66" y1="227.442" x2="1314.66" y2="21.6446" gradientUnits="userSpaceOnUse">
<stop stop-color="#A4FFFF" stop-opacity="0.18"/>
<stop offset="1" stop-color="#A4FFFF" stop-opacity="0"/>
</linearGradient>
<linearGradient id="paint66_linear" x1="1104.39" y1="447.539" x2="1104.39" y2="442.138" gradientUnits="userSpaceOnUse">
<stop stop-color="#A4FFFF" stop-opacity="0.18"/>
<stop offset="1" stop-color="#A4FFFF" stop-opacity="0"/>
</linearGradient>
<linearGradient id="paint67_linear" x1="1104.43" y1="383.929" x2="1104.43" y2="178.132" gradientUnits="userSpaceOnUse">
<stop stop-color="#A4FFFF" stop-opacity="0.18"/>
<stop offset="1" stop-color="#A4FFFF" stop-opacity="0"/>
</linearGradient>
<linearGradient id="paint68_linear" x1="1375.87" y1="432.303" x2="1375.87" y2="226.506" gradientUnits="userSpaceOnUse">
<stop stop-color="#A4FFFF" stop-opacity="0.18"/>
<stop offset="1" stop-color="#A4FFFF" stop-opacity="0"/>
</linearGradient>
<linearGradient id="paint69_linear" x1="1323.99" y1="343.951" x2="1323.99" y2="338.55" gradientUnits="userSpaceOnUse">
<stop stop-color="#A4FFFF" stop-opacity="0.18"/>
<stop offset="1" stop-color="#A4FFFF" stop-opacity="0"/>
</linearGradient>
<linearGradient id="paint70_linear" x1="1324.03" y1="280.341" x2="1324.03" y2="74.5439" gradientUnits="userSpaceOnUse">
<stop stop-color="#A4FFFF" stop-opacity="0.18"/>
<stop offset="1" stop-color="#A4FFFF" stop-opacity="0"/>
</linearGradient>
<linearGradient id="paint71_linear" x1="1059.49" y1="377.653" x2="1059.49" y2="372.253" gradientUnits="userSpaceOnUse">
<stop stop-color="#A4FFFF" stop-opacity="0.18"/>
<stop offset="1" stop-color="#A4FFFF" stop-opacity="0"/>
</linearGradient>
<linearGradient id="paint72_linear" x1="1059.51" y1="340.744" x2="1059.51" y2="226.887" gradientUnits="userSpaceOnUse">
<stop stop-color="#A4FFFF" stop-opacity="0.18"/>
<stop offset="1" stop-color="#A4FFFF" stop-opacity="0"/>
</linearGradient>
<linearGradient id="paint73_linear" x1="1118.64" y1="219.986" x2="1118.64" y2="214.586" gradientUnits="userSpaceOnUse">
<stop stop-color="#A4FFFF" stop-opacity="0.18"/>
<stop offset="1" stop-color="#A4FFFF" stop-opacity="0"/>
</linearGradient>
<linearGradient id="paint74_linear" x1="1118.68" y1="192.216" x2="1118.68" y2="109.751" gradientUnits="userSpaceOnUse">
<stop stop-color="#A4FFFF" stop-opacity="0.18"/>
<stop offset="1" stop-color="#A4FFFF" stop-opacity="0"/>
</linearGradient>
<linearGradient id="paint75_linear" x1="1305.71" y1="404.913" x2="1305.71" y2="399.513" gradientUnits="userSpaceOnUse">
<stop stop-color="#A4FFFF" stop-opacity="0.18"/>
<stop offset="1" stop-color="#A4FFFF" stop-opacity="0"/>
</linearGradient>
<linearGradient id="paint76_linear" x1="1305.75" y1="367.983" x2="1305.75" y2="254.127" gradientUnits="userSpaceOnUse">
<stop stop-color="#A4FFFF" stop-opacity="0.18"/>
<stop offset="1" stop-color="#A4FFFF" stop-opacity="0"/>
</linearGradient>
</defs>
</svg>
