<svg width="1386" height="480" viewBox="0 0 1386 480" fill="none" xmlns="http://www.w3.org/2000/svg">
<path d="M255.677 286.082C255.677 284.188 257.213 282.651 259.108 282.651C261.002 282.651 262.539 284.188 262.539 286.082C262.539 287.977 261.002 289.514 259.108 289.514C257.234 289.514 255.677 287.977 255.677 286.082Z" fill="url(#paint0_linear)"/>
<path d="M259.697 208.301H258.56V284.082H259.697V208.301Z" fill="url(#paint1_linear)"/>
<path d="M100.031 192.766C100.031 190.872 101.568 189.335 103.462 189.335C105.357 189.335 106.893 190.872 106.893 192.766C106.893 194.661 105.357 196.198 103.462 196.198C101.568 196.198 100.031 194.661 100.031 192.766Z" fill="url(#paint2_linear)"/>
<path d="M104.03 114.986H102.894V190.788H104.03V114.986Z" fill="url(#paint3_linear)"/>
<path d="M142.679 112.123C142.679 110.228 144.215 108.692 146.11 108.692C148.005 108.692 149.541 110.228 149.541 112.123C149.541 114.017 148.005 115.554 146.11 115.554C144.215 115.554 142.679 114.017 142.679 112.123Z" fill="url(#paint4_linear)"/>
<path d="M146.699 34.3421H145.563V110.123H146.699V34.3421Z" fill="url(#paint5_linear)"/>
<path d="M176.949 129.531C176.949 127.637 178.485 126.1 180.38 126.1C182.274 126.1 183.811 127.637 183.811 129.531C183.811 131.426 182.274 132.963 180.38 132.963C178.506 132.984 176.949 131.447 176.949 129.531Z" fill="url(#paint6_linear)"/>
<path d="M180.969 51.7717H179.832V127.574H180.969V51.7717Z" fill="url(#paint7_linear)"/>
<path d="M232.858 325.215C232.858 323.32 234.395 321.784 236.289 321.784C238.184 321.784 239.72 323.32 239.72 325.215C239.72 327.109 238.184 328.646 236.289 328.646C234.395 328.646 232.858 327.109 232.858 325.215Z" fill="url(#paint8_linear)"/>
<path d="M236.879 247.434H235.742V323.215H236.879V247.434Z" fill="url(#paint9_linear)"/>
<path d="M285.968 104.503C285.968 102.608 287.505 101.071 289.399 101.071C291.294 101.071 292.83 102.608 292.83 104.503C292.83 106.397 291.294 107.934 289.399 107.934C287.505 107.934 285.968 106.397 285.968 104.503Z" fill="url(#paint10_linear)"/>
<path d="M289.967 26.7429H288.831V102.524H289.967V26.7429Z" fill="url(#paint11_linear)"/>
<path d="M191.263 101.135C191.263 99.2401 192.799 97.7034 194.694 97.7034C196.588 97.7034 198.125 99.2401 198.125 101.135C198.125 103.029 196.588 104.566 194.694 104.566C192.799 104.566 191.263 103.029 191.263 101.135Z" fill="url(#paint12_linear)"/>
<path d="M195.283 61.2654H194.147V99.1559H195.283V61.2654Z" fill="url(#paint13_linear)"/>
<path d="M320.68 291.64C320.68 289.745 322.216 288.208 324.111 288.208C326.006 288.208 327.542 289.745 327.542 291.64C327.542 293.534 326.006 295.071 324.111 295.071C322.238 295.071 320.68 293.534 320.68 291.64Z" fill="url(#paint14_linear)"/>
<path d="M324.7 251.749H323.564V289.64H324.7V251.749Z" fill="url(#paint15_linear)"/>
<path d="M76.4756 26.8692C76.4756 24.9747 78.0123 23.438 79.9068 23.438C81.8014 23.438 83.338 24.9747 83.338 26.8692C83.338 28.7638 81.8014 30.3004 79.9068 30.3004C78.0334 30.3004 76.4756 28.7638 76.4756 26.8692Z" fill="url(#paint16_linear)"/>
<path d="M80.4963 -13H79.3596V24.8905H80.4963V-13Z" fill="url(#paint17_linear)"/>
<path d="M123.27 90.8621C123.27 88.9675 124.807 87.4309 126.702 87.4309C128.596 87.4309 130.133 88.9675 130.133 90.8621C130.133 92.7566 128.596 94.2933 126.702 94.2933C124.807 94.2933 123.27 92.7566 123.27 90.8621Z" fill="url(#paint18_linear)"/>
<path d="M127.291 50.9718H126.154V88.8623H127.291V50.9718Z" fill="url(#paint19_linear)"/>
<path d="M234.205 38.3627C234.205 36.4682 235.742 34.9315 237.637 34.9315C239.531 34.9315 241.068 36.4682 241.068 38.3627C241.068 40.2572 239.531 41.7939 237.637 41.7939C235.763 41.8149 234.205 40.2572 234.205 38.3627Z" fill="url(#paint20_linear)"/>
<path d="M238.226 -1.5065H237.089V36.384H238.226V-1.5065Z" fill="url(#paint21_linear)"/>
<path d="M186.463 315.658C186.463 313.763 188 312.227 189.895 312.227C191.789 312.227 193.326 313.763 193.326 315.658C193.326 317.552 191.789 319.089 189.895 319.089C188 319.089 186.463 317.552 186.463 315.658Z" fill="url(#paint22_linear)"/>
<path d="M190.463 237.877H189.326V313.679H190.463V237.877Z" fill="url(#paint23_linear)"/>
<path d="M70.1185 178.494C70.1185 176.6 71.6551 175.063 73.5497 175.063C75.4442 175.063 76.9809 176.6 76.9809 178.494C76.9809 180.389 75.4442 181.926 73.5497 181.926C71.6551 181.926 70.1185 180.389 70.1185 178.494Z" fill="url(#paint24_linear)"/>
<path d="M74.139 100.735H73.0023V176.516H74.139V100.735Z" fill="url(#paint25_linear)"/>
<path d="M285.21 275.431C285.21 273.536 286.747 272 288.641 272C290.536 272 292.072 273.536 292.072 275.431C292.072 277.325 290.536 278.862 288.641 278.862C286.747 278.883 285.21 277.346 285.21 275.431Z" fill="url(#paint26_linear)"/>
<path d="M289.21 197.671H288.073V273.473H289.21V197.671Z" fill="url(#paint27_linear)"/>
<path d="M0 151.655C0 149.761 1.53667 148.224 3.43119 148.224C5.32572 148.224 6.86239 149.761 6.86239 151.655C6.86239 153.55 5.32572 155.086 3.43119 155.086C1.53667 155.086 0 153.55 0 151.655Z" fill="url(#paint28_linear)"/>
<path d="M3.99945 73.8745H2.86273V149.677H3.99945V73.8745Z" fill="url(#paint29_linear)"/>
<path d="M119.839 466.378C119.839 464.483 121.376 462.947 123.27 462.947C125.165 462.947 126.702 464.483 126.702 466.378C126.702 468.272 125.165 469.809 123.27 469.809C121.376 469.83 119.839 468.272 119.839 466.378Z" fill="url(#paint30_linear)"/>
<path d="M123.839 202.892H122.702V464.399H123.839V202.892Z" fill="url(#paint31_linear)"/>
<path d="M42.0584 452.485C42.0584 450.59 43.5951 449.053 45.4896 449.053C47.3841 449.053 48.9208 450.59 48.9208 452.485C48.9208 454.379 47.3841 455.916 45.4896 455.916C43.5951 455.937 42.0584 454.4 42.0584 452.485Z" fill="url(#paint32_linear)"/>
<path d="M46.079 49.1194H44.9423V450.527H46.079V49.1194Z" fill="url(#paint33_linear)"/>
<path d="M265.339 316.647C265.339 314.753 266.875 313.216 268.77 313.216C270.664 313.216 272.201 314.753 272.201 316.647C272.201 318.542 270.664 320.078 268.77 320.078C266.875 320.078 265.339 318.542 265.339 316.647Z" fill="url(#paint34_linear)"/>
<path d="M269.338 53.161H268.202V314.669H269.338V53.161Z" fill="url(#paint35_linear)"/>
<path d="M172.907 393.291C172.907 391.397 174.444 389.86 176.338 389.86C178.233 389.86 179.769 391.397 179.769 393.291C179.769 395.186 178.233 396.723 176.338 396.723C174.444 396.744 172.907 395.186 172.907 393.291Z" fill="url(#paint36_linear)"/>
<path d="M176.928 129.826H175.791V391.334H176.928V129.826Z" fill="url(#paint37_linear)"/>
<path d="M33.0068 372.22C33.0068 370.325 34.5434 368.789 36.438 368.789C38.3325 368.789 39.8692 370.325 39.8692 372.22C39.8692 374.114 38.3325 375.651 36.438 375.651C34.5434 375.651 33.0068 374.114 33.0068 372.22Z" fill="url(#paint38_linear)"/>
<path d="M37.0063 108.734H35.8696V370.241H37.0063V108.734Z" fill="url(#paint39_linear)"/>
<path d="M245.551 190.451C245.551 188.556 247.088 187.02 248.983 187.02C250.877 187.02 252.414 188.556 252.414 190.451C252.414 192.345 250.877 193.882 248.983 193.882C247.088 193.903 245.551 192.367 245.551 190.451Z" fill="url(#paint40_linear)"/>
<path d="M249.572 43.7937H248.435V188.472H249.572V43.7937Z" fill="url(#paint41_linear)"/>
<path d="M92.8528 267.495C92.8528 265.6 94.3895 264.064 96.284 264.064C98.1785 264.064 99.7152 265.6 99.7152 267.495C99.7152 269.389 98.1785 270.926 96.284 270.926C94.3895 270.926 92.8528 269.389 92.8528 267.495Z" fill="url(#paint42_linear)"/>
<path d="M96.8733 120.838H95.7366V265.516H96.8733V120.838Z" fill="url(#paint43_linear)"/>
<path d="M1219.51 322.352C1219.51 320.458 1221.05 318.921 1222.94 318.921C1224.84 318.921 1226.38 320.458 1226.38 322.352C1226.38 324.247 1224.84 325.783 1222.94 325.783C1221.05 325.804 1219.51 324.247 1219.51 322.352Z" fill="url(#paint44_linear)"/>
<path d="M1223.51 267.537H1222.38V320.395H1223.51V267.537Z" fill="url(#paint45_linear)"/>
<path d="M1131 245.603C1131 243.708 1132.53 242.172 1134.43 242.172C1136.32 242.172 1137.86 243.708 1137.86 245.603C1137.86 247.497 1136.32 249.034 1134.43 249.034C1132.53 249.034 1131 247.497 1131 245.603Z" fill="url(#paint46_linear)"/>
<path d="M1135 106.818H1133.86V243.624H1135V106.818Z" fill="url(#paint47_linear)"/>
<path d="M1379.14 266.506C1379.14 264.611 1380.67 263.075 1382.57 263.075C1384.46 263.075 1386 264.611 1386 266.506C1386 268.4 1384.46 269.937 1382.57 269.937C1380.67 269.937 1379.14 268.4 1379.14 266.506Z" fill="url(#paint48_linear)"/>
<path d="M1383.14 127.721H1382V264.527H1383.14V127.721Z" fill="url(#paint49_linear)"/>
<path d="M1091.86 127.321C1091.86 125.427 1093.4 123.89 1095.3 123.89C1097.19 123.89 1098.73 125.427 1098.73 127.321C1098.73 129.216 1097.19 130.753 1095.3 130.753C1093.42 130.774 1091.86 129.237 1091.86 127.321Z" fill="url(#paint50_linear)"/>
<path d="M1095.89 49.5617H1094.75V125.364H1095.89V49.5617Z" fill="url(#paint51_linear)"/>
<path d="M1198.11 187.062C1198.11 185.168 1199.64 183.631 1201.54 183.631C1203.43 183.631 1204.97 185.168 1204.97 187.062C1204.97 188.957 1203.43 190.493 1201.54 190.493C1199.64 190.514 1198.11 188.957 1198.11 187.062Z" fill="url(#paint52_linear)"/>
<path d="M1202.1 109.302H1200.97V185.104H1202.1V109.302Z" fill="url(#paint53_linear)"/>
<path d="M1336.78 161.444C1336.78 159.549 1338.32 158.013 1340.22 158.013C1342.11 158.013 1343.65 159.549 1343.65 161.444C1343.65 163.338 1342.11 164.875 1340.22 164.875C1338.32 164.896 1336.78 163.359 1336.78 161.444Z" fill="url(#paint54_linear)"/>
<path d="M1340.81 83.6841H1339.67V159.465H1340.81V83.6841Z" fill="url(#paint55_linear)"/>
<path d="M1306.72 193.04C1306.72 191.146 1308.26 189.609 1310.16 189.609C1312.05 189.609 1313.59 191.146 1313.59 193.04C1313.59 194.935 1312.05 196.472 1310.16 196.472C1308.26 196.472 1306.72 194.935 1306.72 193.04Z" fill="url(#paint56_linear)"/>
<path d="M1310.75 115.281H1309.61V191.083H1310.75V115.281Z" fill="url(#paint57_linear)"/>
<path d="M1188.02 250.423C1188.02 248.529 1189.56 246.992 1191.45 246.992C1193.35 246.992 1194.88 248.529 1194.88 250.423C1194.88 252.318 1193.35 253.855 1191.45 253.855C1189.56 253.876 1188.02 252.318 1188.02 250.423Z" fill="url(#paint58_linear)"/>
<path d="M1192.04 106.292H1190.91V248.445H1192.04V106.292Z" fill="url(#paint59_linear)"/>
<path d="M1208 224.363C1208 222.469 1209.54 220.932 1211.43 220.932C1213.32 220.932 1214.86 222.469 1214.86 224.363C1214.86 226.258 1213.32 227.794 1211.43 227.794C1209.54 227.794 1208 226.258 1208 224.363Z" fill="url(#paint60_linear)"/>
<path d="M1212.02 108.902H1210.88V222.384H1212.02V108.902Z" fill="url(#paint61_linear)"/>
<path d="M1159.04 375.104C1159.04 373.21 1160.57 371.673 1162.47 371.673C1164.36 371.673 1165.9 373.21 1165.9 375.104C1165.9 376.999 1164.36 378.535 1162.47 378.535C1160.59 378.535 1159.04 376.999 1159.04 375.104Z" fill="url(#paint62_linear)"/>
<path d="M1163.06 111.618H1161.92V373.125H1163.06V111.618Z" fill="url(#paint63_linear)"/>
<path d="M1259.13 261.559C1259.13 259.664 1260.67 258.128 1262.56 258.128C1264.46 258.128 1265.99 259.664 1265.99 261.559C1265.99 263.454 1264.46 264.99 1262.56 264.99C1260.67 264.99 1259.13 263.454 1259.13 261.559Z" fill="url(#paint64_linear)"/>
<path d="M1263.15 -1.92725H1262.01V259.58H1263.15V-1.92725Z" fill="url(#paint65_linear)"/>
<path d="M1311.23 276.189C1311.23 274.294 1312.77 272.758 1314.66 272.758C1316.56 272.758 1318.09 274.294 1318.09 276.189C1318.09 278.083 1316.56 279.62 1314.66 279.62C1312.77 279.62 1311.23 278.083 1311.23 276.189Z" fill="url(#paint66_linear)"/>
<path d="M1315.23 12.7027H1314.09V274.21H1315.23V12.7027Z" fill="url(#paint67_linear)"/>
<path d="M1100.98 432.677C1100.98 430.782 1102.52 429.245 1104.41 429.245C1106.31 429.245 1107.84 430.782 1107.84 432.677C1107.84 434.571 1106.31 436.108 1104.41 436.108C1102.54 436.108 1100.98 434.571 1100.98 432.677Z" fill="url(#paint68_linear)"/>
<path d="M1105 169.19H1103.86V430.698H1105V169.19Z" fill="url(#paint69_linear)"/>
<path d="M1376.44 217.564H1375.31V479.071H1376.44V217.564Z" fill="url(#paint70_linear)"/>
<path d="M1320.58 329.088C1320.58 327.194 1322.11 325.657 1324.01 325.657C1325.9 325.657 1327.44 327.194 1327.44 329.088C1327.44 330.983 1325.9 332.52 1324.01 332.52C1322.11 332.52 1320.58 330.983 1320.58 329.088Z" fill="url(#paint71_linear)"/>
<path d="M1324.6 65.6021H1323.46V327.11H1324.6V65.6021Z" fill="url(#paint72_linear)"/>
<path d="M1056.08 362.79C1056.08 360.895 1057.62 359.359 1059.51 359.359C1061.4 359.359 1062.94 360.895 1062.94 362.79C1062.94 364.684 1061.4 366.221 1059.51 366.221C1057.62 366.242 1056.08 364.705 1056.08 362.79Z" fill="url(#paint73_linear)"/>
<path d="M1060.08 216.132H1058.94V360.811H1060.08V216.132Z" fill="url(#paint74_linear)"/>
<path d="M1115.23 205.123C1115.23 203.229 1116.77 201.692 1118.66 201.692C1120.56 201.692 1122.09 203.229 1122.09 205.123C1122.09 207.018 1120.56 208.554 1118.66 208.554C1116.77 208.576 1115.23 207.039 1115.23 205.123Z" fill="url(#paint75_linear)"/>
<path d="M1119.25 98.3773H1118.11V203.166H1119.25V98.3773Z" fill="url(#paint76_linear)"/>
<path d="M1302.3 390.05C1302.3 388.155 1303.84 386.619 1305.74 386.619C1307.63 386.619 1309.17 388.155 1309.17 390.05C1309.17 391.944 1307.63 393.481 1305.74 393.481C1303.84 393.481 1302.3 391.944 1302.3 390.05Z" fill="url(#paint77_linear)"/>
<path d="M1306.32 243.372H1305.19V388.05H1306.32V243.372Z" fill="url(#paint78_linear)"/>
<defs>
<linearGradient id="paint0_linear" x1="259.123" y1="266.763" x2="259.123" y2="207.124" gradientUnits="userSpaceOnUse">
<stop stop-color="#A4FFFF"/>
<stop offset="1" stop-color="#A4FFFF" stop-opacity="0"/>
</linearGradient>
<linearGradient id="paint1_linear" x1="259.125" y1="266.762" x2="259.125" y2="207.125" gradientUnits="userSpaceOnUse">
<stop stop-color="#A4FFFF"/>
<stop offset="1" stop-color="#A4FFFF" stop-opacity="0"/>
</linearGradient>
<linearGradient id="paint2_linear" x1="103.462" y1="173.446" x2="103.462" y2="113.788" gradientUnits="userSpaceOnUse">
<stop stop-color="#A4FFFF"/>
<stop offset="1" stop-color="#A4FFFF" stop-opacity="0"/>
</linearGradient>
<linearGradient id="paint3_linear" x1="103.462" y1="173.452" x2="103.462" y2="113.812" gradientUnits="userSpaceOnUse">
<stop stop-color="#A4FFFF"/>
<stop offset="1" stop-color="#A4FFFF" stop-opacity="0"/>
</linearGradient>
<linearGradient id="paint4_linear" x1="146.124" y1="92.8098" x2="146.124" y2="33.1703" gradientUnits="userSpaceOnUse">
<stop stop-color="#A4FFFF"/>
<stop offset="1" stop-color="#A4FFFF" stop-opacity="0"/>
</linearGradient>
<linearGradient id="paint5_linear" x1="146.123" y1="92.8086" x2="146.123" y2="33.171" gradientUnits="userSpaceOnUse">
<stop stop-color="#A4FFFF"/>
<stop offset="1" stop-color="#A4FFFF" stop-opacity="0"/>
</linearGradient>
<linearGradient id="paint6_linear" x1="180.396" y1="110.227" x2="180.396" y2="50.5861" gradientUnits="userSpaceOnUse">
<stop stop-color="#A4FFFF"/>
<stop offset="1" stop-color="#A4FFFF" stop-opacity="0"/>
</linearGradient>
<linearGradient id="paint7_linear" x1="180.396" y1="110.228" x2="180.396" y2="50.5889" gradientUnits="userSpaceOnUse">
<stop stop-color="#A4FFFF"/>
<stop offset="1" stop-color="#A4FFFF" stop-opacity="0"/>
</linearGradient>
<linearGradient id="paint8_linear" x1="236.301" y1="305.904" x2="236.301" y2="246.281" gradientUnits="userSpaceOnUse">
<stop stop-color="#A4FFFF"/>
<stop offset="1" stop-color="#A4FFFF" stop-opacity="0"/>
</linearGradient>
<linearGradient id="paint9_linear" x1="236.303" y1="305.898" x2="236.303" y2="246.261" gradientUnits="userSpaceOnUse">
<stop stop-color="#A4FFFF"/>
<stop offset="1" stop-color="#A4FFFF" stop-opacity="0"/>
</linearGradient>
<linearGradient id="paint10_linear" x1="289.4" y1="85.1915" x2="289.4" y2="25.5523" gradientUnits="userSpaceOnUse">
<stop stop-color="#A4FFFF"/>
<stop offset="1" stop-color="#A4FFFF" stop-opacity="0"/>
</linearGradient>
<linearGradient id="paint11_linear" x1="289.399" y1="85.1903" x2="289.399" y2="25.5527" gradientUnits="userSpaceOnUse">
<stop stop-color="#A4FFFF"/>
<stop offset="1" stop-color="#A4FFFF" stop-opacity="0"/>
</linearGradient>
<linearGradient id="paint12_linear" x1="194.704" y1="81.8265" x2="194.704" y2="22.1873" gradientUnits="userSpaceOnUse">
<stop stop-color="#A4FFFF"/>
<stop offset="1" stop-color="#A4FFFF" stop-opacity="0"/>
</linearGradient>
<linearGradient id="paint13_linear" x1="194.705" y1="90.494" x2="194.705" y2="60.6746" gradientUnits="userSpaceOnUse">
<stop stop-color="#A4FFFF"/>
<stop offset="1" stop-color="#A4FFFF" stop-opacity="0"/>
</linearGradient>
<linearGradient id="paint14_linear" x1="324.127" y1="272.32" x2="324.127" y2="212.68" gradientUnits="userSpaceOnUse">
<stop stop-color="#A4FFFF"/>
<stop offset="1" stop-color="#A4FFFF" stop-opacity="0"/>
</linearGradient>
<linearGradient id="paint15_linear" x1="324.127" y1="280.987" x2="324.127" y2="251.168" gradientUnits="userSpaceOnUse">
<stop stop-color="#A4FFFF"/>
<stop offset="1" stop-color="#A4FFFF" stop-opacity="0"/>
</linearGradient>
<linearGradient id="paint16_linear" x1="79.9241" y1="7.56046" x2="79.9241" y2="-52.079" gradientUnits="userSpaceOnUse">
<stop stop-color="#A4FFFF"/>
<stop offset="1" stop-color="#A4FFFF" stop-opacity="0"/>
</linearGradient>
<linearGradient id="paint17_linear" x1="79.9233" y1="16.2281" x2="79.9233" y2="-13.5915" gradientUnits="userSpaceOnUse">
<stop stop-color="#A4FFFF"/>
<stop offset="1" stop-color="#A4FFFF" stop-opacity="0"/>
</linearGradient>
<linearGradient id="paint18_linear" x1="126.716" y1="71.5369" x2="126.716" y2="11.8793" gradientUnits="userSpaceOnUse">
<stop stop-color="#A4FFFF"/>
<stop offset="1" stop-color="#A4FFFF" stop-opacity="0"/>
</linearGradient>
<linearGradient id="paint19_linear" x1="126.716" y1="80.2113" x2="126.716" y2="50.3919" gradientUnits="userSpaceOnUse">
<stop stop-color="#A4FFFF"/>
<stop offset="1" stop-color="#A4FFFF" stop-opacity="0"/>
</linearGradient>
<linearGradient id="paint20_linear" x1="237.653" y1="19.0558" x2="237.653" y2="-40.5836" gradientUnits="userSpaceOnUse">
<stop stop-color="#A4FFFF"/>
<stop offset="1" stop-color="#A4FFFF" stop-opacity="0"/>
</linearGradient>
<linearGradient id="paint21_linear" x1="237.655" y1="27.7224" x2="237.655" y2="-2.09401" gradientUnits="userSpaceOnUse">
<stop stop-color="#A4FFFF"/>
<stop offset="1" stop-color="#A4FFFF" stop-opacity="0"/>
</linearGradient>
<linearGradient id="paint22_linear" x1="189.904" y1="296.345" x2="189.904" y2="236.706" gradientUnits="userSpaceOnUse">
<stop stop-color="#A4FFFF"/>
<stop offset="1" stop-color="#A4FFFF" stop-opacity="0"/>
</linearGradient>
<linearGradient id="paint23_linear" x1="189.902" y1="296.345" x2="189.902" y2="236.706" gradientUnits="userSpaceOnUse">
<stop stop-color="#A4FFFF"/>
<stop offset="1" stop-color="#A4FFFF" stop-opacity="0"/>
</linearGradient>
<linearGradient id="paint24_linear" x1="73.5608" y1="159.182" x2="73.5608" y2="99.5425" gradientUnits="userSpaceOnUse">
<stop stop-color="#A4FFFF"/>
<stop offset="1" stop-color="#A4FFFF" stop-opacity="0"/>
</linearGradient>
<linearGradient id="paint25_linear" x1="73.5597" y1="159.183" x2="73.5597" y2="99.5453" gradientUnits="userSpaceOnUse">
<stop stop-color="#A4FFFF"/>
<stop offset="1" stop-color="#A4FFFF" stop-opacity="0"/>
</linearGradient>
<linearGradient id="paint26_linear" x1="288.647" y1="256.122" x2="288.647" y2="196.465" gradientUnits="userSpaceOnUse">
<stop stop-color="#A4FFFF"/>
<stop offset="1" stop-color="#A4FFFF" stop-opacity="0"/>
</linearGradient>
<linearGradient id="paint27_linear" x1="288.648" y1="256.128" x2="288.648" y2="196.49" gradientUnits="userSpaceOnUse">
<stop stop-color="#A4FFFF"/>
<stop offset="1" stop-color="#A4FFFF" stop-opacity="0"/>
</linearGradient>
<linearGradient id="paint28_linear" x1="3.43814" y1="132.335" x2="3.43814" y2="72.6952" gradientUnits="userSpaceOnUse">
<stop stop-color="#A4FFFF"/>
<stop offset="1" stop-color="#A4FFFF" stop-opacity="0"/>
</linearGradient>
<linearGradient id="paint29_linear" x1="3.43888" y1="132.335" x2="3.43888" y2="72.6959" gradientUnits="userSpaceOnUse">
<stop stop-color="#A4FFFF"/>
<stop offset="1" stop-color="#A4FFFF" stop-opacity="0"/>
</linearGradient>
<linearGradient id="paint30_linear" x1="123.278" y1="432.746" x2="123.278" y2="326.534" gradientUnits="userSpaceOnUse">
<stop stop-color="#A4FFFF"/>
<stop offset="1" stop-color="#A4FFFF" stop-opacity="0"/>
</linearGradient>
<linearGradient id="paint31_linear" x1="123.279" y1="406.169" x2="123.279" y2="210.788" gradientUnits="userSpaceOnUse">
<stop stop-color="#A4FFFF"/>
<stop offset="1" stop-color="#A4FFFF" stop-opacity="0"/>
</linearGradient>
<linearGradient id="paint32_linear" x1="45.5016" y1="418.858" x2="45.5016" y2="312.646" gradientUnits="userSpaceOnUse">
<stop stop-color="#A4FFFF"/>
<stop offset="1" stop-color="#A4FFFF" stop-opacity="0"/>
</linearGradient>
<linearGradient id="paint33_linear" x1="45.5027" y1="361.127" x2="45.5027" y2="61.2249" gradientUnits="userSpaceOnUse">
<stop stop-color="#A4FFFF"/>
<stop offset="1" stop-color="#A4FFFF" stop-opacity="0"/>
</linearGradient>
<linearGradient id="paint34_linear" x1="268.768" y1="283.012" x2="268.768" y2="176.8" gradientUnits="userSpaceOnUse">
<stop stop-color="#A4FFFF"/>
<stop offset="1" stop-color="#A4FFFF" stop-opacity="0"/>
</linearGradient>
<linearGradient id="paint35_linear" x1="268.769" y1="256.435" x2="268.769" y2="61.0538" gradientUnits="userSpaceOnUse">
<stop stop-color="#A4FFFF"/>
<stop offset="1" stop-color="#A4FFFF" stop-opacity="0"/>
</linearGradient>
<linearGradient id="paint36_linear" x1="176.35" y1="359.66" x2="176.35" y2="253.448" gradientUnits="userSpaceOnUse">
<stop stop-color="#A4FFFF"/>
<stop offset="1" stop-color="#A4FFFF" stop-opacity="0"/>
</linearGradient>
<linearGradient id="paint37_linear" x1="176.351" y1="333.082" x2="176.351" y2="137.702" gradientUnits="userSpaceOnUse">
<stop stop-color="#A4FFFF"/>
<stop offset="1" stop-color="#A4FFFF" stop-opacity="0"/>
</linearGradient>
<linearGradient id="paint38_linear" x1="36.4441" y1="338.585" x2="36.4441" y2="232.372" gradientUnits="userSpaceOnUse">
<stop stop-color="#A4FFFF"/>
<stop offset="1" stop-color="#A4FFFF" stop-opacity="0"/>
</linearGradient>
<linearGradient id="paint39_linear" x1="36.4441" y1="312.008" x2="36.4441" y2="116.627" gradientUnits="userSpaceOnUse">
<stop stop-color="#A4FFFF"/>
<stop offset="1" stop-color="#A4FFFF" stop-opacity="0"/>
</linearGradient>
<linearGradient id="paint40_linear" x1="248.992" y1="156.813" x2="248.992" y2="50.5678" gradientUnits="userSpaceOnUse">
<stop stop-color="#A4FFFF"/>
<stop offset="1" stop-color="#A4FFFF" stop-opacity="0"/>
</linearGradient>
<linearGradient id="paint41_linear" x1="248.992" y1="156.263" x2="248.992" y2="48.1629" gradientUnits="userSpaceOnUse">
<stop stop-color="#A4FFFF"/>
<stop offset="1" stop-color="#A4FFFF" stop-opacity="0"/>
</linearGradient>
<linearGradient id="paint42_linear" x1="96.2947" y1="233.861" x2="96.2947" y2="127.681" gradientUnits="userSpaceOnUse">
<stop stop-color="#A4FFFF"/>
<stop offset="1" stop-color="#A4FFFF" stop-opacity="0"/>
</linearGradient>
<linearGradient id="paint43_linear" x1="96.2946" y1="233.291" x2="96.2946" y2="125.192" gradientUnits="userSpaceOnUse">
<stop stop-color="#A4FFFF"/>
<stop offset="1" stop-color="#A4FFFF" stop-opacity="0"/>
</linearGradient>
<linearGradient id="paint44_linear" x1="1222.95" y1="303.055" x2="1222.95" y2="243.434" gradientUnits="userSpaceOnUse">
<stop stop-color="#A4FFFF"/>
<stop offset="1" stop-color="#A4FFFF" stop-opacity="0"/>
</linearGradient>
<linearGradient id="paint45_linear" x1="1222.94" y1="308.295" x2="1222.94" y2="266.704" gradientUnits="userSpaceOnUse">
<stop stop-color="#A4FFFF"/>
<stop offset="1" stop-color="#A4FFFF" stop-opacity="0"/>
</linearGradient>
<linearGradient id="paint46_linear" x1="1134.43" y1="226.293" x2="1134.43" y2="166.653" gradientUnits="userSpaceOnUse">
<stop stop-color="#A4FFFF"/>
<stop offset="1" stop-color="#A4FFFF" stop-opacity="0"/>
</linearGradient>
<linearGradient id="paint47_linear" x1="1134.43" y1="212.34" x2="1134.43" y2="104.694" gradientUnits="userSpaceOnUse">
<stop stop-color="#A4FFFF"/>
<stop offset="1" stop-color="#A4FFFF" stop-opacity="0"/>
</linearGradient>
<linearGradient id="paint48_linear" x1="1382.57" y1="247.18" x2="1382.57" y2="187.523" gradientUnits="userSpaceOnUse">
<stop stop-color="#A4FFFF"/>
<stop offset="1" stop-color="#A4FFFF" stop-opacity="0"/>
</linearGradient>
<linearGradient id="paint49_linear" x1="1382.57" y1="233.233" x2="1382.57" y2="125.584" gradientUnits="userSpaceOnUse">
<stop stop-color="#A4FFFF"/>
<stop offset="1" stop-color="#A4FFFF" stop-opacity="0"/>
</linearGradient>
<linearGradient id="paint50_linear" x1="1095.31" y1="108.019" x2="1095.31" y2="48.3796" gradientUnits="userSpaceOnUse">
<stop stop-color="#A4FFFF"/>
<stop offset="1" stop-color="#A4FFFF" stop-opacity="0"/>
</linearGradient>
<linearGradient id="paint51_linear" x1="1095.31" y1="108.019" x2="1095.31" y2="48.3801" gradientUnits="userSpaceOnUse">
<stop stop-color="#A4FFFF"/>
<stop offset="1" stop-color="#A4FFFF" stop-opacity="0"/>
</linearGradient>
<linearGradient id="paint52_linear" x1="1201.53" y1="167.747" x2="1201.53" y2="108.09" gradientUnits="userSpaceOnUse">
<stop stop-color="#A4FFFF"/>
<stop offset="1" stop-color="#A4FFFF" stop-opacity="0"/>
</linearGradient>
<linearGradient id="paint53_linear" x1="1201.53" y1="167.752" x2="1201.53" y2="108.113" gradientUnits="userSpaceOnUse">
<stop stop-color="#A4FFFF"/>
<stop offset="1" stop-color="#A4FFFF" stop-opacity="0"/>
</linearGradient>
<linearGradient id="paint54_linear" x1="1340.23" y1="142.142" x2="1340.23" y2="82.5032" gradientUnits="userSpaceOnUse">
<stop stop-color="#A4FFFF"/>
<stop offset="1" stop-color="#A4FFFF" stop-opacity="0"/>
</linearGradient>
<linearGradient id="paint55_linear" x1="1340.23" y1="142.141" x2="1340.23" y2="82.5034" gradientUnits="userSpaceOnUse">
<stop stop-color="#A4FFFF"/>
<stop offset="1" stop-color="#A4FFFF" stop-opacity="0"/>
</linearGradient>
<linearGradient id="paint56_linear" x1="1310.17" y1="173.732" x2="1310.17" y2="114.093" gradientUnits="userSpaceOnUse">
<stop stop-color="#A4FFFF"/>
<stop offset="1" stop-color="#A4FFFF" stop-opacity="0"/>
</linearGradient>
<linearGradient id="paint57_linear" x1="1310.17" y1="173.732" x2="1310.17" y2="114.093" gradientUnits="userSpaceOnUse">
<stop stop-color="#A4FFFF"/>
<stop offset="1" stop-color="#A4FFFF" stop-opacity="0"/>
</linearGradient>
<linearGradient id="paint58_linear" x1="1191.47" y1="216.792" x2="1191.47" y2="110.579" gradientUnits="userSpaceOnUse">
<stop stop-color="#A4FFFF"/>
<stop offset="1" stop-color="#A4FFFF" stop-opacity="0"/>
</linearGradient>
<linearGradient id="paint59_linear" x1="1191.47" y1="216.793" x2="1191.47" y2="110.582" gradientUnits="userSpaceOnUse">
<stop stop-color="#A4FFFF"/>
<stop offset="1" stop-color="#A4FFFF" stop-opacity="0"/>
</linearGradient>
<linearGradient id="paint60_linear" x1="1211.44" y1="190.721" x2="1211.44" y2="84.5094" gradientUnits="userSpaceOnUse">
<stop stop-color="#A4FFFF"/>
<stop offset="1" stop-color="#A4FFFF" stop-opacity="0"/>
</linearGradient>
<linearGradient id="paint61_linear" x1="1211.44" y1="197.106" x2="1211.44" y2="112.316" gradientUnits="userSpaceOnUse">
<stop stop-color="#A4FFFF"/>
<stop offset="1" stop-color="#A4FFFF" stop-opacity="0"/>
</linearGradient>
<linearGradient id="paint62_linear" x1="1162.48" y1="341.469" x2="1162.48" y2="235.257" gradientUnits="userSpaceOnUse">
<stop stop-color="#A4FFFF"/>
<stop offset="1" stop-color="#A4FFFF" stop-opacity="0"/>
</linearGradient>
<linearGradient id="paint63_linear" x1="1162.48" y1="314.89" x2="1162.48" y2="119.509" gradientUnits="userSpaceOnUse">
<stop stop-color="#A4FFFF"/>
<stop offset="1" stop-color="#A4FFFF" stop-opacity="0"/>
</linearGradient>
<linearGradient id="paint64_linear" x1="1262.57" y1="227.91" x2="1262.57" y2="121.665" gradientUnits="userSpaceOnUse">
<stop stop-color="#A4FFFF"/>
<stop offset="1" stop-color="#A4FFFF" stop-opacity="0"/>
</linearGradient>
<linearGradient id="paint65_linear" x1="1262.57" y1="201.34" x2="1262.57" y2="5.95923" gradientUnits="userSpaceOnUse">
<stop stop-color="#A4FFFF"/>
<stop offset="1" stop-color="#A4FFFF" stop-opacity="0"/>
</linearGradient>
<linearGradient id="paint66_linear" x1="1314.66" y1="242.543" x2="1314.66" y2="136.302" gradientUnits="userSpaceOnUse">
<stop stop-color="#A4FFFF"/>
<stop offset="1" stop-color="#A4FFFF" stop-opacity="0"/>
</linearGradient>
<linearGradient id="paint67_linear" x1="1314.66" y1="215.976" x2="1314.66" y2="20.5938" gradientUnits="userSpaceOnUse">
<stop stop-color="#A4FFFF"/>
<stop offset="1" stop-color="#A4FFFF" stop-opacity="0"/>
</linearGradient>
<linearGradient id="paint68_linear" x1="1104.43" y1="399.041" x2="1104.43" y2="292.829" gradientUnits="userSpaceOnUse">
<stop stop-color="#A4FFFF"/>
<stop offset="1" stop-color="#A4FFFF" stop-opacity="0"/>
</linearGradient>
<linearGradient id="paint69_linear" x1="1104.43" y1="372.462" x2="1104.43" y2="177.083" gradientUnits="userSpaceOnUse">
<stop stop-color="#A4FFFF"/>
<stop offset="1" stop-color="#A4FFFF" stop-opacity="0"/>
</linearGradient>
<linearGradient id="paint70_linear" x1="1375.88" y1="420.834" x2="1375.88" y2="225.453" gradientUnits="userSpaceOnUse">
<stop stop-color="#A4FFFF"/>
<stop offset="1" stop-color="#A4FFFF" stop-opacity="0"/>
</linearGradient>
<linearGradient id="paint71_linear" x1="1324.02" y1="295.458" x2="1324.02" y2="189.278" gradientUnits="userSpaceOnUse">
<stop stop-color="#A4FFFF"/>
<stop offset="1" stop-color="#A4FFFF" stop-opacity="0"/>
</linearGradient>
<linearGradient id="paint72_linear" x1="1324.02" y1="268.87" x2="1324.02" y2="73.4887" gradientUnits="userSpaceOnUse">
<stop stop-color="#A4FFFF"/>
<stop offset="1" stop-color="#A4FFFF" stop-opacity="0"/>
</linearGradient>
<linearGradient id="paint73_linear" x1="1059.51" y1="329.164" x2="1059.51" y2="222.952" gradientUnits="userSpaceOnUse">
<stop stop-color="#A4FFFF"/>
<stop offset="1" stop-color="#A4FFFF" stop-opacity="0"/>
</linearGradient>
<linearGradient id="paint74_linear" x1="1059.51" y1="328.601" x2="1059.51" y2="220.504" gradientUnits="userSpaceOnUse">
<stop stop-color="#A4FFFF"/>
<stop offset="1" stop-color="#A4FFFF" stop-opacity="0"/>
</linearGradient>
<linearGradient id="paint75_linear" x1="1118.68" y1="171.498" x2="1118.68" y2="65.2857" gradientUnits="userSpaceOnUse">
<stop stop-color="#A4FFFF"/>
<stop offset="1" stop-color="#A4FFFF" stop-opacity="0"/>
</linearGradient>
<linearGradient id="paint76_linear" x1="1118.68" y1="179.823" x2="1118.68" y2="101.538" gradientUnits="userSpaceOnUse">
<stop stop-color="#A4FFFF"/>
<stop offset="1" stop-color="#A4FFFF" stop-opacity="0"/>
</linearGradient>
<linearGradient id="paint77_linear" x1="1305.75" y1="356.417" x2="1305.75" y2="250.238" gradientUnits="userSpaceOnUse">
<stop stop-color="#A4FFFF"/>
<stop offset="1" stop-color="#A4FFFF" stop-opacity="0"/>
</linearGradient>
<linearGradient id="paint78_linear" x1="1305.75" y1="355.845" x2="1305.75" y2="247.745" gradientUnits="userSpaceOnUse">
<stop stop-color="#A4FFFF"/>
<stop offset="1" stop-color="#A4FFFF" stop-opacity="0"/>
</linearGradient>
</defs>
</svg>
